<?xml version="1.0" encoding="UTF-8"?>
<svg width="365px" height="197px" viewBox="0 0 365 197" version="1.1" xmlns="http://www.w3.org/2000/svg" xmlns:xlink="http://www.w3.org/1999/xlink">
    <!-- Generator: Sketch 47.1 (45422) - http://www.bohemiancoding.com/sketch -->
    <title>c2</title>
    <desc>Created with Sketch.</desc>
    <defs></defs>
    <g id="Page-1" stroke="none" stroke-width="1" fill="none" fill-rule="evenodd">
        <g id="test" transform="translate(-556.000000, -769.000000)">
            <g id="Layer_1">
                <g id="c2" transform="translate(556.000000, 769.000000)">
                    <g id="Group">
                        <g id="Shape" fill-rule="nonzero">
                            <path d="M39.8,147 C20,147 4,130.9 4,111.2 L4,39.8 C4,20 20.1,4 39.8,4 L325.2,4 C345,4 361,20.1 361,39.8 L361,111.2 C361,131 344.9,147 325.2,147 L39.8,147 Z" fill="#FFFFFF"></path>
                            <path d="M325.2,8 C342.7,8 357,22.3 357,39.8 L357,111.2 C357,128.7 342.7,143 325.2,143 L39.8,143 C22.3,143 8,128.7 8,111.2 L8,39.8 C8,22.3 22.3,8 39.8,8 L325.2,8 L325.2,8 Z M325.2,0 L39.8,0 C17.8,0 0,17.8 0,39.8 L0,111.2 C0,133.2 17.8,151 39.8,151 L325.2,151 C347.2,151 365,133.2 365,111.2 L365,39.8 C365,17.8 347.2,0 325.2,0 L325.2,0 Z" fill="#303030"></path>
                        </g>
                        <g transform="translate(262.000000, 142.000000)" id="Shape" fill-rule="nonzero">
                            <polyline fill="#FFFFFF" points="55 0 55 45 3 0"></polyline>
                            <polyline fill="#303030" points="9.1 1 51 37.2 51 1 59 1 59 54.8 0.4 4 3 1"></polyline>
                        </g>
                        <path d="M315,176 L273,140 L39,140 C39,140 14,138 10,111 L10,36 L10,16" id="Shape" stroke="#4C2606" stroke-width="7" opacity="0.1"></path>
                    </g>
                    <text id="Yeah-!-So-are-The-Beatles.." fill="#494949" font-family="Impact" font-size="25.9258" font-style="condensed" font-weight="700">
                        <tspan x="45.0488" y="83.0518">Yeah ! So are The Beatles..</tspan>
                    </text>
                </g>
            </g>
        </g>
    </g>
</svg>